<?xml version="1.0" encoding="UTF-8"?>
<svg xmlns="http://www.w3.org/2000/svg" xmlns:xlink="http://www.w3.org/1999/xlink" width="288px" height="252px" viewBox="0 0 288 252" version="1.1" id="Fig:dens">
  <metadata xmlns:gridsvg="http://www.stat.auckland.ac.nz/~paul/R/gridSVG/">
    <gridsvg:generator name="gridSVG" version="1.7-4" time="2022-12-10 15:48:59"/>
    <gridsvg:argument name="name" value="./stats/Microarray/GSE22523//dens.svg"/>
    <gridsvg:argument name="exportCoords" value="none"/>
    <gridsvg:argument name="exportMappings" value="none"/>
    <gridsvg:argument name="exportJS" value="none"/>
    <gridsvg:argument name="res" value="72"/>
    <gridsvg:argument name="prefix" value="Fig:dens"/>
    <gridsvg:argument name="addClasses" value="FALSE"/>
    <gridsvg:argument name="indent" value="TRUE"/>
    <gridsvg:argument name="htmlWrapper" value="FALSE"/>
    <gridsvg:argument name="usePaths" value="none"/>
    <gridsvg:argument name="uniqueNames" value="TRUE"/>
    <gridsvg:separator name="id.sep" value="."/>
    <gridsvg:separator name="gPath.sep" value="::"/>
    <gridsvg:separator name="vpPath.sep" value="::"/>
  </metadata>
  <g transform="translate(0, 252) scale(1, -1)">
    <g id="Fig:densgridSVG" fill="none" stroke="rgb(0,0,0)" stroke-dasharray="none" stroke-width="0.75" font-size="12" font-family="Helvetica, Arial, FreeSans, Liberation Sans, Nimbus Sans L, sans-serif" opacity="1" stroke-linecap="round" stroke-linejoin="round" stroke-miterlimit="10" stroke-opacity="1" fill-opacity="0" font-weight="normal" font-style="normal">
      <g id="Fig:densplot_01.background.1">
        <rect id="Fig:densplot_01.background.1.1" x="0" y="0" width="288" height="252" transform="" fill="none" stroke="none" stroke-opacity="0" fill-opacity="0"/>
      </g>
      <g id="Fig:densplot_01.toplevel.vp.1" font-size="12">
        <g id="Fig:densplot_01.ylab.vp.1">
          <g id="Fig:densplot_01.ylab.1">
            <g id="Fig:densplot_01.ylab.1.1" transform="translate(16.31, 141.09)" stroke-width="0.1">
              <g id="Fig:densplot_01.ylab.1.1.scale" transform="scale(1, -1)">
                <text x="0" y="0" id="Fig:densplot_01.ylab.1.1.text" transform="rotate(-90)" text-anchor="middle" opacity="1" stroke="rgb(0,0,0)" fill="rgb(0,0,0)" stroke-opacity="1" fill-opacity="1" font-size="12" font-weight="normal" font-style="normal">
                  <tspan id="Fig:densplot_01.ylab.1.1.tspan.1" dy="4.31" x="0">Density</tspan>
                </text>
              </g>
            </g>
          </g>
        </g>
        <g id="Fig:densplot_01.figure.vp.1"/>
        <defs>
          <clipPath id="Fig:densplot_01.panel.1.1.vp.1.clipPath">
            <rect x="50.8" y="48.19" width="225.2" height="185.81" fill="none" stroke="none"/>
          </clipPath>
        </defs>
        <g id="Fig:densplot_01.panel.1.1.vp.1" clip-path="url(#Fig:densplot_01.panel.1.1.vp.1.clipPath)"/>
        <g id="Fig:densplot_01.strip.1.1.off.vp.1"/>
        <g id="Fig:densplot_01.strip.left.1.1.off.vp.1">
          <g id="Fig:densplot_01.ticks.left.panel.1.1.1">
            <polyline id="Fig:densplot_01.ticks.left.panel.1.1.1.1" points="50.8,59.59 45.13,59.59" stroke="rgb(0,0,0)" opacity="1" stroke-dasharray="none" stroke-width="0.75" stroke-opacity="1" fill="none"/>
            <polyline id="Fig:densplot_01.ticks.left.panel.1.1.1.2" points="50.8,105.39 45.13,105.39" stroke="rgb(0,0,0)" opacity="1" stroke-dasharray="none" stroke-width="0.75" stroke-opacity="1" fill="none"/>
            <polyline id="Fig:densplot_01.ticks.left.panel.1.1.1.3" points="50.8,151.2 45.13,151.2" stroke="rgb(0,0,0)" opacity="1" stroke-dasharray="none" stroke-width="0.75" stroke-opacity="1" fill="none"/>
            <polyline id="Fig:densplot_01.ticks.left.panel.1.1.1.4" points="50.8,197 45.13,197" stroke="rgb(0,0,0)" opacity="1" stroke-dasharray="none" stroke-width="0.75" stroke-opacity="1" fill="none"/>
          </g>
          <g id="Fig:densplot_01.ticklabels.left.panel.1.1.1">
            <g id="Fig:densplot_01.ticklabels.left.panel.1.1.1.1" transform="translate(39.47, 59.59)" stroke-width="0.1">
              <g id="Fig:densplot_01.ticklabels.left.panel.1.1.1.1.scale" transform="scale(1, -1)">
                <text x="0" y="0" id="Fig:densplot_01.ticklabels.left.panel.1.1.1.1.text" transform="rotate(-90)" text-anchor="middle" stroke="rgb(0,0,0)" opacity="1" fill="rgb(0,0,0)" stroke-opacity="1" fill-opacity="1" font-size="9.6" font-weight="normal" font-style="normal">
                  <tspan id="Fig:densplot_01.ticklabels.left.panel.1.1.1.1.tspan.1" dy="0" x="0">0.00</tspan>
                </text>
              </g>
            </g>
            <g id="Fig:densplot_01.ticklabels.left.panel.1.1.1.2" transform="translate(39.47, 105.39)" stroke-width="0.1">
              <g id="Fig:densplot_01.ticklabels.left.panel.1.1.1.2.scale" transform="scale(1, -1)">
                <text x="0" y="0" id="Fig:densplot_01.ticklabels.left.panel.1.1.1.2.text" transform="rotate(-90)" text-anchor="middle" stroke="rgb(0,0,0)" opacity="1" fill="rgb(0,0,0)" stroke-opacity="1" fill-opacity="1" font-size="9.6" font-weight="normal" font-style="normal">
                  <tspan id="Fig:densplot_01.ticklabels.left.panel.1.1.1.2.tspan.1" dy="0" x="0">0.05</tspan>
                </text>
              </g>
            </g>
            <g id="Fig:densplot_01.ticklabels.left.panel.1.1.1.3" transform="translate(39.47, 151.2)" stroke-width="0.1">
              <g id="Fig:densplot_01.ticklabels.left.panel.1.1.1.3.scale" transform="scale(1, -1)">
                <text x="0" y="0" id="Fig:densplot_01.ticklabels.left.panel.1.1.1.3.text" transform="rotate(-90)" text-anchor="middle" stroke="rgb(0,0,0)" opacity="1" fill="rgb(0,0,0)" stroke-opacity="1" fill-opacity="1" font-size="9.6" font-weight="normal" font-style="normal">
                  <tspan id="Fig:densplot_01.ticklabels.left.panel.1.1.1.3.tspan.1" dy="0" x="0">0.10</tspan>
                </text>
              </g>
            </g>
            <g id="Fig:densplot_01.ticklabels.left.panel.1.1.1.4" transform="translate(39.47, 197)" stroke-width="0.1">
              <g id="Fig:densplot_01.ticklabels.left.panel.1.1.1.4.scale" transform="scale(1, -1)">
                <text x="0" y="0" id="Fig:densplot_01.ticklabels.left.panel.1.1.1.4.text" transform="rotate(-90)" text-anchor="middle" stroke="rgb(0,0,0)" opacity="1" fill="rgb(0,0,0)" stroke-opacity="1" fill-opacity="1" font-size="9.6" font-weight="normal" font-style="normal">
                  <tspan id="Fig:densplot_01.ticklabels.left.panel.1.1.1.4.tspan.1" dy="0" x="0">0.15</tspan>
                </text>
              </g>
            </g>
          </g>
        </g>
        <g id="Fig:densplot_01.panel.1.1.off.vp.1">
          <g id="Fig:densplot_01.ticks.bottom.panel.1.1.1">
            <polyline id="Fig:densplot_01.ticks.bottom.panel.1.1.1.1" points="76.58,48.19 76.58,42.52" stroke="rgb(0,0,0)" opacity="1" stroke-dasharray="none" stroke-width="0.75" stroke-opacity="1" fill="none"/>
            <polyline id="Fig:densplot_01.ticks.bottom.panel.1.1.1.2" points="110.48,48.19 110.48,42.52" stroke="rgb(0,0,0)" opacity="1" stroke-dasharray="none" stroke-width="0.75" stroke-opacity="1" fill="none"/>
            <polyline id="Fig:densplot_01.ticks.bottom.panel.1.1.1.3" points="144.38,48.19 144.38,42.52" stroke="rgb(0,0,0)" opacity="1" stroke-dasharray="none" stroke-width="0.75" stroke-opacity="1" fill="none"/>
            <polyline id="Fig:densplot_01.ticks.bottom.panel.1.1.1.4" points="178.29,48.19 178.29,42.52" stroke="rgb(0,0,0)" opacity="1" stroke-dasharray="none" stroke-width="0.75" stroke-opacity="1" fill="none"/>
            <polyline id="Fig:densplot_01.ticks.bottom.panel.1.1.1.5" points="212.19,48.19 212.19,42.52" stroke="rgb(0,0,0)" opacity="1" stroke-dasharray="none" stroke-width="0.75" stroke-opacity="1" fill="none"/>
            <polyline id="Fig:densplot_01.ticks.bottom.panel.1.1.1.6" points="246.09,48.19 246.09,42.52" stroke="rgb(0,0,0)" opacity="1" stroke-dasharray="none" stroke-width="0.75" stroke-opacity="1" fill="none"/>
          </g>
          <g id="Fig:densplot_01.ticklabels.bottom.panel.1.1.1">
            <g id="Fig:densplot_01.ticklabels.bottom.panel.1.1.1.1" transform="translate(76.58, 36.85)" stroke-width="0.1">
              <g id="Fig:densplot_01.ticklabels.bottom.panel.1.1.1.1.scale" transform="scale(1, -1)">
                <text x="0" y="0" id="Fig:densplot_01.ticklabels.bottom.panel.1.1.1.1.text" text-anchor="middle" stroke="rgb(0,0,0)" opacity="1" fill="rgb(0,0,0)" stroke-opacity="1" fill-opacity="1" font-size="9.6" font-weight="normal" font-style="normal">
                  <tspan id="Fig:densplot_01.ticklabels.bottom.panel.1.1.1.1.tspan.1" dy="7.18" x="0">2</tspan>
                </text>
              </g>
            </g>
            <g id="Fig:densplot_01.ticklabels.bottom.panel.1.1.1.2" transform="translate(110.48, 36.85)" stroke-width="0.1">
              <g id="Fig:densplot_01.ticklabels.bottom.panel.1.1.1.2.scale" transform="scale(1, -1)">
                <text x="0" y="0" id="Fig:densplot_01.ticklabels.bottom.panel.1.1.1.2.text" text-anchor="middle" stroke="rgb(0,0,0)" opacity="1" fill="rgb(0,0,0)" stroke-opacity="1" fill-opacity="1" font-size="9.6" font-weight="normal" font-style="normal">
                  <tspan id="Fig:densplot_01.ticklabels.bottom.panel.1.1.1.2.tspan.1" dy="7.18" x="0">4</tspan>
                </text>
              </g>
            </g>
            <g id="Fig:densplot_01.ticklabels.bottom.panel.1.1.1.3" transform="translate(144.38, 36.85)" stroke-width="0.1">
              <g id="Fig:densplot_01.ticklabels.bottom.panel.1.1.1.3.scale" transform="scale(1, -1)">
                <text x="0" y="0" id="Fig:densplot_01.ticklabels.bottom.panel.1.1.1.3.text" text-anchor="middle" stroke="rgb(0,0,0)" opacity="1" fill="rgb(0,0,0)" stroke-opacity="1" fill-opacity="1" font-size="9.6" font-weight="normal" font-style="normal">
                  <tspan id="Fig:densplot_01.ticklabels.bottom.panel.1.1.1.3.tspan.1" dy="7.18" x="0">6</tspan>
                </text>
              </g>
            </g>
            <g id="Fig:densplot_01.ticklabels.bottom.panel.1.1.1.4" transform="translate(178.29, 36.85)" stroke-width="0.1">
              <g id="Fig:densplot_01.ticklabels.bottom.panel.1.1.1.4.scale" transform="scale(1, -1)">
                <text x="0" y="0" id="Fig:densplot_01.ticklabels.bottom.panel.1.1.1.4.text" text-anchor="middle" stroke="rgb(0,0,0)" opacity="1" fill="rgb(0,0,0)" stroke-opacity="1" fill-opacity="1" font-size="9.6" font-weight="normal" font-style="normal">
                  <tspan id="Fig:densplot_01.ticklabels.bottom.panel.1.1.1.4.tspan.1" dy="7.18" x="0">8</tspan>
                </text>
              </g>
            </g>
            <g id="Fig:densplot_01.ticklabels.bottom.panel.1.1.1.5" transform="translate(212.19, 36.85)" stroke-width="0.1">
              <g id="Fig:densplot_01.ticklabels.bottom.panel.1.1.1.5.scale" transform="scale(1, -1)">
                <text x="0" y="0" id="Fig:densplot_01.ticklabels.bottom.panel.1.1.1.5.text" text-anchor="middle" stroke="rgb(0,0,0)" opacity="1" fill="rgb(0,0,0)" stroke-opacity="1" fill-opacity="1" font-size="9.6" font-weight="normal" font-style="normal">
                  <tspan id="Fig:densplot_01.ticklabels.bottom.panel.1.1.1.5.tspan.1" dy="7.18" x="0">10</tspan>
                </text>
              </g>
            </g>
            <g id="Fig:densplot_01.ticklabels.bottom.panel.1.1.1.6" transform="translate(246.09, 36.85)" stroke-width="0.1">
              <g id="Fig:densplot_01.ticklabels.bottom.panel.1.1.1.6.scale" transform="scale(1, -1)">
                <text x="0" y="0" id="Fig:densplot_01.ticklabels.bottom.panel.1.1.1.6.text" text-anchor="middle" stroke="rgb(0,0,0)" opacity="1" fill="rgb(0,0,0)" stroke-opacity="1" fill-opacity="1" font-size="9.6" font-weight="normal" font-style="normal">
                  <tspan id="Fig:densplot_01.ticklabels.bottom.panel.1.1.1.6.tspan.1" dy="7.18" x="0">12</tspan>
                </text>
              </g>
            </g>
          </g>
        </g>
        <defs>
          <clipPath id="Fig:densplot_01.panel.1.1.vp.2.clipPath">
            <rect x="50.8" y="48.19" width="225.2" height="185.81" fill="none" stroke="none"/>
          </clipPath>
        </defs>
        <g id="Fig:densplot_01.panel.1.1.vp.2" clip-path="url(#Fig:densplot_01.panel.1.1.vp.2.clipPath)">
          <g id="Fig:densplot_01.xyplot.lines.group.1.panel.1.1.1">
            <polyline id="Fig:densplot_01.xyplot.lines.group.1.panel.1.1.1.1" points="64.74,59.62 65.13,59.64 65.52,59.65 65.9,59.68 66.29,59.71 66.67,59.75 67.06,59.8 67.45,59.86 67.83,59.93 68.22,60.03 68.6,60.15 68.99,60.3 69.38,60.48 69.76,60.7 70.15,60.96 70.53,61.27 70.92,61.64 71.31,62.08 71.69,62.58 72.08,63.17 72.46,63.84 72.85,64.59 73.24,65.44 73.62,66.41 74.01,67.49 74.39,68.68 74.78,69.98 75.17,71.39 75.55,72.92 75.94,74.56 76.32,76.32 76.71,78.19 77.1,80.16 77.48,82.21 77.87,84.34 78.25,86.53 78.64,88.78 79.03,91.08 79.41,93.41 79.8,95.74 80.18,98.08 80.57,100.41 80.96,102.71 81.34,104.98 81.73,107.19 82.11,109.33 82.5,111.41 82.89,113.42 83.27,115.34 83.66,117.18 84.04,118.92 84.43,120.56 84.82,122.1 85.2,123.54 85.59,124.89 85.97,126.15 86.36,127.31 86.74,128.38 87.13,129.36 87.52,130.25 87.9,131.06 88.29,131.8 88.67,132.48 89.06,133.09 89.45,133.64 89.83,134.14 90.22,134.59 90.6,135 90.99,135.39 91.38,135.75 91.76,136.09 92.15,136.41 92.53,136.74 92.92,137.06 93.31,137.39 93.69,137.73 94.08,138.09 94.46,138.47 94.85,138.88 95.24,139.31 95.62,139.77 96.01,140.27 96.39,140.79 96.78,141.35 97.17,141.93 97.55,142.55 97.94,143.2 98.32,143.88 98.71,144.58 99.1,145.31 99.48,146.06 99.87,146.83 100.25,147.63 100.64,148.44 101.03,149.28 101.41,150.13 101.8,150.99 102.18,151.87 102.57,152.77 102.96,153.68 103.34,154.6 103.73,155.53 104.11,156.47 104.5,157.41 104.89,158.36 105.27,159.32 105.66,160.27 106.04,161.23 106.43,162.18 106.82,163.12 107.2,164.06 107.59,164.99 107.97,165.92 108.36,166.83 108.75,167.74 109.13,168.63 109.52,169.52 109.9,170.4 110.29,171.28 110.68,172.15 111.06,173.01 111.45,173.87 111.83,174.73 112.22,175.58 112.61,176.44 112.99,177.29 113.38,178.13 113.76,178.98 114.15,179.82 114.54,180.65 114.92,181.48 115.31,182.3 115.69,183.11 116.08,183.92 116.47,184.71 116.85,185.49 117.24,186.26 117.62,187.01 118.01,187.76 118.4,188.5 118.78,189.22 119.17,189.94 119.55,190.66 119.94,191.36 120.33,192.07 120.71,192.78 121.1,193.48 121.48,194.19 121.87,194.9 122.26,195.61 122.64,196.32 123.03,197.03 123.41,197.75 123.8,198.47 124.19,199.18 124.57,199.89 124.96,200.59 125.34,201.29 125.73,201.98 126.12,202.65 126.5,203.31 126.89,203.96 127.27,204.59 127.66,205.2 128.05,205.8 128.43,206.38 128.82,206.94 129.2,207.49 129.59,208.01 129.98,208.53 130.36,209.03 130.75,209.52 131.13,210 131.52,210.47 131.91,210.94 132.29,211.39 132.68,211.84 133.06,212.29 133.45,212.73 133.84,213.17 134.22,213.6 134.61,214.03 134.99,214.46 135.38,214.87 135.77,215.29 136.15,215.69 136.54,216.09 136.92,216.48 137.31,216.86 137.69,217.22 138.08,217.57 138.47,217.91 138.85,218.22 139.24,218.52 139.62,218.79 140.01,219.03 140.4,219.25 140.78,219.43 141.17,219.58 141.55,219.7 141.94,219.78 142.33,219.82 142.71,219.81 143.1,219.77 143.48,219.68 143.87,219.55 144.26,219.38 144.64,219.17 145.03,218.91 145.41,218.62 145.8,218.28 146.19,217.91 146.57,217.51 146.96,217.07 147.34,216.6 147.73,216.09 148.12,215.55 148.5,214.99 148.89,214.4 149.27,213.78 149.66,213.14 150.05,212.47 150.43,211.78 150.82,211.06 151.2,210.31 151.59,209.55 151.98,208.76 152.36,207.96 152.75,207.14 153.13,206.3 153.52,205.45 153.91,204.58 154.29,203.71 154.68,202.83 155.06,201.95 155.45,201.07 155.84,200.18 156.22,199.31 156.61,198.43 156.99,197.57 157.38,196.71 157.77,195.87 158.15,195.04 158.54,194.22 158.92,193.41 159.31,192.62 159.7,191.85 160.08,191.08 160.47,190.34 160.85,189.61 161.24,188.9 161.63,188.21 162.01,187.54 162.4,186.88 162.78,186.25 163.17,185.65 163.56,185.07 163.94,184.51 164.33,183.99 164.71,183.48 165.1,183.01 165.49,182.56 165.87,182.14 166.26,181.74 166.64,181.36 167.03,181.01 167.42,180.67 167.8,180.34 168.19,180.03 168.57,179.72 168.96,179.42 169.35,179.12 169.73,178.82 170.12,178.52 170.5,178.2 170.89,177.88 171.28,177.55 171.66,177.2 172.05,176.83 172.43,176.46 172.82,176.06 173.21,175.66 173.59,175.24 173.98,174.8 174.36,174.35 174.75,173.89 175.14,173.42 175.52,172.95 175.91,172.47 176.29,171.99 176.68,171.5 177.07,171.02 177.45,170.55 177.84,170.08 178.22,169.62 178.61,169.16 179,168.72 179.38,168.29 179.77,167.88 180.15,167.48 180.54,167.09 180.93,166.71 181.31,166.34 181.7,165.98 182.08,165.62 182.47,165.27 182.86,164.92 183.24,164.56 183.63,164.2 184.01,163.82 184.4,163.43 184.79,163.02 185.17,162.58 185.56,162.12 185.94,161.64 186.33,161.12 186.72,160.57 187.1,159.99 187.49,159.37 187.87,158.72 188.26,158.03 188.64,157.31 189.03,156.56 189.42,155.79 189.8,154.98 190.19,154.15 190.57,153.3 190.96,152.42 191.35,151.53 191.73,150.63 192.12,149.71 192.5,148.78 192.89,147.85 193.28,146.9 193.66,145.96 194.05,145.01 194.43,144.06 194.82,143.11 195.21,142.15 195.59,141.2 195.98,140.25 196.36,139.29 196.75,138.34 197.14,137.38 197.52,136.42 197.91,135.45 198.29,134.48 198.68,133.51 199.07,132.54 199.45,131.56 199.84,130.58 200.22,129.59 200.61,128.61 201,127.62 201.38,126.64 201.77,125.67 202.15,124.7 202.54,123.74 202.93,122.79 203.31,121.86 203.7,120.94 204.08,120.03 204.47,119.14 204.86,118.27 205.24,117.41 205.63,116.57 206.01,115.74 206.4,114.93 206.79,114.13 207.17,113.34 207.56,112.56 207.94,111.78 208.33,111.01 208.72,110.25 209.1,109.49 209.49,108.74 209.87,107.99 210.26,107.25 210.65,106.52 211.03,105.79 211.42,105.07 211.8,104.37 212.19,103.67 212.58,102.99 212.96,102.33 213.35,101.68 213.73,101.05 214.12,100.43 214.51,99.84 214.89,99.26 215.28,98.7 215.66,98.14 216.05,97.61 216.44,97.08 216.82,96.57 217.21,96.06 217.59,95.56 217.98,95.06 218.37,94.56 218.75,94.07 219.14,93.57 219.52,93.07 219.91,92.58 220.3,92.08 220.68,91.58 221.07,91.08 221.45,90.59 221.84,90.09 222.23,89.59 222.61,89.1 223,88.62 223.38,88.14 223.77,87.66 224.16,87.19 224.54,86.73 224.93,86.28 225.31,85.84 225.7,85.4 226.09,84.98 226.47,84.57 226.86,84.16 227.24,83.77 227.63,83.39 228.02,83.02 228.4,82.66 228.79,82.31 229.17,81.97 229.56,81.65 229.95,81.34 230.33,81.03 230.72,80.75 231.1,80.47 231.49,80.2 231.88,79.94 232.26,79.69 232.65,79.45 233.03,79.22 233.42,79 233.81,78.78 234.19,78.57 234.58,78.37 234.96,78.16 235.35,77.96 235.74,77.77 236.12,77.57 236.51,77.38 236.89,77.18 237.28,76.99 237.67,76.8 238.05,76.61 238.44,76.41 238.82,76.22 239.21,76.03 239.59,75.83 239.98,75.64 240.37,75.44 240.75,75.24 241.14,75.03 241.52,74.82 241.91,74.6 242.3,74.37 242.68,74.14 243.07,73.89 243.45,73.62 243.84,73.34 244.23,73.04 244.61,72.72 245,72.38 245.38,72.02 245.77,71.63 246.16,71.22 246.54,70.79 246.93,70.34 247.31,69.86 247.7,69.37 248.09,68.86 248.47,68.33 248.86,67.8 249.24,67.26 249.63,66.72 250.02,66.18 250.4,65.65 250.79,65.13 251.17,64.63 251.56,64.15 251.95,63.68 252.33,63.24 252.72,62.83 253.1,62.44 253.49,62.08 253.88,61.76 254.26,61.47 254.65,61.2 255.03,60.96 255.42,60.75 255.81,60.56 256.19,60.4 256.58,60.26 256.96,60.14 257.35,60.04 257.74,59.95 258.12,59.88 258.51,59.82 258.89,59.77 259.28,59.73 259.67,59.7 260.05,59.67 260.44,59.65 260.82,59.64 261.21,59.62 261.6,59.61 261.98,59.61" stroke-dasharray="none" stroke="rgb(31,120,180)" stroke-width="0.75" opacity="1" stroke-opacity="1" fill="none"/>
          </g>
          <g id="Fig:densplot_01.xyplot.lines.group.2.panel.1.1.1">
            <polyline id="Fig:densplot_01.xyplot.lines.group.2.panel.1.1.1.1" points="64.72,59.63 65.1,59.65 65.49,59.67 65.88,59.7 66.26,59.74 66.65,59.79 67.04,59.85 67.42,59.93 67.81,60.02 68.19,60.14 68.58,60.29 68.97,60.47 69.35,60.69 69.74,60.95 70.12,61.26 70.51,61.63 70.9,62.07 71.28,62.58 71.67,63.16 72.06,63.84 72.44,64.6 72.83,65.45 73.21,66.41 73.6,67.49 73.99,68.69 74.37,69.99 74.76,71.41 75.15,72.93 75.53,74.57 75.92,76.31 76.3,78.17 76.69,80.11 77.08,82.14 77.46,84.24 77.85,86.39 78.24,88.6 78.62,90.85 79.01,93.11 79.39,95.38 79.78,97.65 80.17,99.89 80.55,102.1 80.94,104.27 81.32,106.37 81.71,108.41 82.1,110.36 82.48,112.24 82.87,114.03 83.26,115.72 83.64,117.33 84.03,118.83 84.41,120.23 84.8,121.55 85.19,122.77 85.57,123.91 85.96,124.98 86.35,125.97 86.73,126.89 87.12,127.75 87.5,128.56 87.89,129.32 88.28,130.05 88.66,130.75 89.05,131.41 89.43,132.06 89.82,132.68 90.21,133.29 90.59,133.88 90.98,134.47 91.37,135.04 91.75,135.61 92.14,136.17 92.52,136.71 92.91,137.25 93.3,137.78 93.68,138.3 94.07,138.81 94.46,139.31 94.84,139.81 95.23,140.29 95.61,140.78 96,141.26 96.39,141.74 96.77,142.23 97.16,142.72 97.54,143.22 97.93,143.73 98.32,144.26 98.7,144.81 99.09,145.37 99.48,145.96 99.86,146.57 100.25,147.21 100.63,147.88 101.02,148.57 101.41,149.29 101.79,150.02 102.18,150.78 102.57,151.57 102.95,152.37 103.34,153.18 103.72,154.01 104.11,154.84 104.5,155.69 104.88,156.53 105.27,157.38 105.66,158.22 106.04,159.07 106.43,159.91 106.81,160.74 107.2,161.57 107.59,162.39 107.97,163.21 108.36,164.03 108.74,164.84 109.13,165.64 109.52,166.45 109.9,167.25 110.29,168.05 110.68,168.85 111.06,169.65 111.45,170.45 111.83,171.25 112.22,172.04 112.61,172.84 112.99,173.63 113.38,174.42 113.77,175.2 114.15,175.98 114.54,176.74 114.92,177.49 115.31,178.23 115.7,178.96 116.08,179.67 116.47,180.36 116.85,181.04 117.24,181.7 117.63,182.35 118.01,182.97 118.4,183.59 118.79,184.18 119.17,184.77 119.56,185.34 119.94,185.91 120.33,186.47 120.72,187.02 121.1,187.58 121.49,188.14 121.88,188.71 122.26,189.28 122.65,189.86 123.03,190.46 123.42,191.07 123.81,191.69 124.19,192.34 124.58,193 124.96,193.68 125.35,194.38 125.74,195.09 126.12,195.83 126.51,196.58 126.9,197.35 127.28,198.13 127.67,198.93 128.05,199.73 128.44,200.55 128.83,201.37 129.21,202.19 129.6,203.02 129.99,203.85 130.37,204.67 130.76,205.5 131.14,206.31 131.53,207.11 131.92,207.9 132.3,208.68 132.69,209.44 133.08,210.18 133.46,210.89 133.85,211.59 134.23,212.26 134.62,212.89 135.01,213.5 135.39,214.07 135.78,214.61 136.16,215.13 136.55,215.61 136.94,216.05 137.32,216.46 137.71,216.84 138.1,217.19 138.48,217.5 138.87,217.79 139.25,218.05 139.64,218.28 140.03,218.47 140.41,218.64 140.8,218.79 141.19,218.9 141.57,218.99 141.96,219.05 142.34,219.08 142.73,219.09 143.12,219.06 143.5,219.01 143.89,218.92 144.27,218.81 144.66,218.68 145.05,218.51 145.43,218.31 145.82,218.08 146.21,217.83 146.59,217.56 146.98,217.26 147.36,216.93 147.75,216.58 148.14,216.21 148.52,215.81 148.91,215.39 149.3,214.94 149.68,214.48 150.07,213.99 150.45,213.47 150.84,212.93 151.23,212.36 151.61,211.77 152,211.16 152.38,210.52 152.77,209.86 153.16,209.17 153.54,208.46 153.93,207.73 154.32,206.98 154.7,206.22 155.09,205.44 155.47,204.64 155.86,203.84 156.25,203.03 156.63,202.22 157.02,201.4 157.41,200.59 157.79,199.78 158.18,198.98 158.56,198.19 158.95,197.42 159.34,196.65 159.72,195.91 160.11,195.18 160.49,194.47 160.88,193.78 161.27,193.12 161.65,192.48 162.04,191.86 162.43,191.26 162.81,190.69 163.2,190.14 163.58,189.61 163.97,189.11 164.36,188.64 164.74,188.19 165.13,187.76 165.52,187.35 165.9,186.96 166.29,186.59 166.67,186.24 167.06,185.9 167.45,185.57 167.83,185.25 168.22,184.94 168.61,184.62 168.99,184.31 169.38,183.99 169.76,183.66 170.15,183.32 170.54,182.96 170.92,182.59 171.31,182.2 171.69,181.79 172.08,181.36 172.47,180.92 172.85,180.45 173.24,179.97 173.63,179.47 174.01,178.95 174.4,178.43 174.78,177.89 175.17,177.34 175.56,176.79 175.94,176.24 176.33,175.68 176.72,175.12 177.1,174.56 177.49,174 177.87,173.44 178.26,172.88 178.65,172.33 179.03,171.77 179.42,171.21 179.8,170.65 180.19,170.09 180.58,169.53 180.96,168.96 181.35,168.39 181.74,167.81 182.12,167.23 182.51,166.64 182.89,166.04 183.28,165.45 183.67,164.85 184.05,164.24 184.44,163.64 184.83,163.03 185.21,162.42 185.6,161.81 185.98,161.21 186.37,160.6 186.76,159.99 187.14,159.38 187.53,158.78 187.91,158.17 188.3,157.56 188.69,156.94 189.07,156.33 189.46,155.7 189.85,155.07 190.23,154.44 190.62,153.79 191,153.13 191.39,152.45 191.78,151.77 192.16,151.06 192.55,150.35 192.94,149.61 193.32,148.84 193.71,148.06 194.09,147.26 194.48,146.43 194.87,145.58 195.25,144.7 195.64,143.8 196.03,142.86 196.41,141.9 196.8,140.91 197.18,139.9 197.57,138.86 197.96,137.8 198.34,136.71 198.73,135.6 199.11,134.47 199.5,133.32 199.89,132.17 200.27,131 200.66,129.83 201.05,128.65 201.43,127.47 201.82,126.3 202.2,125.14 202.59,123.98 202.98,122.84 203.36,121.72 203.75,120.62 204.14,119.54 204.52,118.48 204.91,117.45 205.29,116.45 205.68,115.47 206.07,114.53 206.45,113.62 206.84,112.74 207.22,111.88 207.61,111.06 208,110.27 208.38,109.5 208.77,108.76 209.16,108.05 209.54,107.37 209.93,106.7 210.31,106.05 210.7,105.42 211.09,104.8 211.47,104.2 211.86,103.61 212.25,103.02 212.63,102.44 213.02,101.87 213.4,101.3 213.79,100.73 214.18,100.17 214.56,99.6 214.95,99.03 215.33,98.47 215.72,97.9 216.11,97.33 216.49,96.76 216.88,96.19 217.27,95.62 217.65,95.05 218.04,94.49 218.42,93.93 218.81,93.37 219.2,92.82 219.58,92.27 219.97,91.74 220.36,91.21 220.74,90.69 221.13,90.17 221.51,89.67 221.9,89.18 222.29,88.69 222.67,88.22 223.06,87.76 223.45,87.31 223.83,86.88 224.22,86.45 224.6,86.03 224.99,85.62 225.38,85.22 225.76,84.84 226.15,84.46 226.53,84.08 226.92,83.72 227.31,83.36 227.69,83.01 228.08,82.67 228.47,82.33 228.85,82 229.24,81.68 229.62,81.36 230.01,81.05 230.4,80.75 230.78,80.46 231.17,80.18 231.56,79.9 231.94,79.64 232.33,79.39 232.71,79.15 233.1,78.92 233.49,78.71 233.87,78.5 234.26,78.31 234.64,78.12 235.03,77.95 235.42,77.79 235.8,77.63 236.19,77.49 236.58,77.34 236.96,77.2 237.35,77.07 237.73,76.93 238.12,76.79 238.51,76.64 238.89,76.49 239.28,76.33 239.67,76.16 240.05,75.98 240.44,75.79 240.82,75.58 241.21,75.36 241.6,75.12 241.98,74.86 242.37,74.59 242.75,74.3 243.14,73.98 243.53,73.65 243.91,73.29 244.3,72.91 244.69,72.52 245.07,72.1 245.46,71.67 245.84,71.21 246.23,70.73 246.62,70.24 247,69.73 247.39,69.22 247.78,68.69 248.16,68.15 248.55,67.61 248.93,67.07 249.32,66.53 249.71,66 250.09,65.48 250.48,64.97 250.86,64.47 251.25,64 251.64,63.55 252.02,63.13 252.41,62.73 252.8,62.35 253.18,62.01 253.57,61.69 253.95,61.41 254.34,61.15 254.73,60.92 255.11,60.72 255.5,60.54 255.89,60.38 256.27,60.24 256.66,60.13 257.04,60.03 257.43,59.95 257.82,59.88 258.2,59.82 258.59,59.77 258.98,59.73 259.36,59.7 259.75,59.67 260.13,59.65 260.52,59.64 260.91,59.62 261.29,59.61 261.68,59.61 262.06,59.6" stroke-dasharray="none" stroke="rgb(31,120,180)" stroke-width="0.75" opacity="1" stroke-opacity="1" fill="none"/>
          </g>
          <g id="Fig:densplot_01.xyplot.lines.group.3.panel.1.1.1">
            <polyline id="Fig:densplot_01.xyplot.lines.group.3.panel.1.1.1.1" points="64.63,59.63 65.02,59.64 65.4,59.66 65.79,59.68 66.18,59.71 66.56,59.76 66.95,59.81 67.34,59.87 67.72,59.95 68.11,60.05 68.5,60.18 68.88,60.33 69.27,60.52 69.66,60.74 70.04,61.01 70.43,61.33 70.82,61.7 71.2,62.13 71.59,62.64 71.98,63.23 72.36,63.9 72.75,64.66 73.14,65.51 73.52,66.46 73.91,67.52 74.3,68.7 74.68,69.99 75.07,71.39 75.46,72.9 75.84,74.51 76.23,76.23 76.62,78.06 77,79.98 77.39,82 77.78,84.09 78.16,86.24 78.55,88.45 78.94,90.71 79.32,93 79.71,95.32 80.09,97.64 80.48,99.95 80.87,102.25 81.25,104.52 81.64,106.75 82.03,108.93 82.41,111.05 82.8,113.11 83.19,115.09 83.57,117 83.96,118.83 84.35,120.58 84.73,122.23 85.12,123.79 85.51,125.27 85.89,126.67 86.28,127.99 86.67,129.23 87.05,130.39 87.44,131.48 87.83,132.5 88.21,133.46 88.6,134.36 88.99,135.22 89.37,136.02 89.76,136.77 90.15,137.48 90.53,138.16 90.92,138.8 91.31,139.41 91.69,139.99 92.08,140.55 92.47,141.08 92.85,141.59 93.24,142.09 93.62,142.57 94.01,143.05 94.4,143.51 94.78,143.98 95.17,144.44 95.56,144.92 95.94,145.4 96.33,145.89 96.72,146.4 97.1,146.93 97.49,147.48 97.88,148.06 98.26,148.66 98.65,149.3 99.04,149.96 99.42,150.65 99.81,151.37 100.2,152.11 100.58,152.88 100.97,153.67 101.36,154.48 101.74,155.29 102.13,156.12 102.52,156.96 102.9,157.79 103.29,158.62 103.68,159.45 104.06,160.27 104.45,161.07 104.84,161.87 105.22,162.65 105.61,163.42 106,164.17 106.38,164.91 106.77,165.65 107.16,166.38 107.54,167.11 107.93,167.84 108.31,168.57 108.7,169.32 109.09,170.09 109.47,170.87 109.86,171.67 110.25,172.5 110.63,173.36 111.02,174.25 111.41,175.17 111.79,176.12 112.18,177.1 112.57,178.1 112.95,179.13 113.34,180.18 113.73,181.24 114.11,182.3 114.5,183.37 114.89,184.43 115.27,185.47 115.66,186.5 116.05,187.5 116.43,188.47 116.82,189.4 117.21,190.29 117.59,191.13 117.98,191.94 118.37,192.69 118.75,193.4 119.14,194.06 119.53,194.68 119.91,195.26 120.3,195.81 120.69,196.33 121.07,196.83 121.46,197.3 121.84,197.76 122.23,198.21 122.62,198.66 123,199.11 123.39,199.55 123.78,200.01 124.16,200.47 124.55,200.94 124.94,201.42 125.32,201.9 125.71,202.4 126.1,202.9 126.48,203.42 126.87,203.94 127.26,204.46 127.64,205 128.03,205.53 128.42,206.08 128.8,206.62 129.19,207.18 129.58,207.74 129.96,208.3 130.35,208.87 130.74,209.45 131.12,210.04 131.51,210.63 131.9,211.22 132.28,211.82 132.67,212.41 133.06,213.01 133.44,213.6 133.83,214.18 134.22,214.76 134.6,215.32 134.99,215.85 135.38,216.37 135.76,216.86 136.15,217.33 136.53,217.76 136.92,218.16 137.31,218.52 137.69,218.85 138.08,219.13 138.47,219.38 138.85,219.6 139.24,219.77 139.63,219.91 140.01,220 140.4,220.06 140.79,220.08 141.17,220.06 141.56,220 141.95,219.9 142.33,219.76 142.72,219.57 143.11,219.34 143.49,219.07 143.88,218.76 144.27,218.4 144.65,217.99 145.04,217.54 145.43,217.05 145.81,216.51 146.2,215.92 146.59,215.3 146.97,214.65 147.36,213.96 147.75,213.23 148.13,212.47 148.52,211.69 148.91,210.88 149.29,210.06 149.68,209.21 150.07,208.35 150.45,207.48 150.84,206.59 151.22,205.7 151.61,204.8 152,203.89 152.38,202.98 152.77,202.07 153.16,201.16 153.54,200.24 153.93,199.34 154.32,198.43 154.7,197.53 155.09,196.64 155.48,195.76 155.86,194.89 156.25,194.02 156.64,193.17 157.02,192.33 157.41,191.51 157.8,190.69 158.18,189.89 158.57,189.11 158.96,188.33 159.34,187.57 159.73,186.82 160.12,186.08 160.5,185.35 160.89,184.63 161.28,183.92 161.66,183.23 162.05,182.54 162.44,181.87 162.82,181.21 163.21,180.56 163.6,179.93 163.98,179.33 164.37,178.74 164.75,178.17 165.14,177.63 165.53,177.11 165.91,176.62 166.3,176.17 166.69,175.75 167.07,175.36 167.46,175 167.85,174.68 168.23,174.39 168.62,174.12 169.01,173.9 169.39,173.7 169.78,173.52 170.17,173.36 170.55,173.22 170.94,173.09 171.33,172.97 171.71,172.85 172.1,172.73 172.49,172.61 172.87,172.48 173.26,172.33 173.65,172.17 174.03,171.99 174.42,171.79 174.81,171.56 175.19,171.31 175.58,171.04 175.97,170.74 176.35,170.42 176.74,170.07 177.13,169.7 177.51,169.31 177.9,168.9 178.29,168.48 178.67,168.05 179.06,167.61 179.44,167.17 179.83,166.72 180.22,166.28 180.6,165.84 180.99,165.4 181.38,164.98 181.76,164.55 182.15,164.13 182.54,163.72 182.92,163.31 183.31,162.9 183.7,162.48 184.08,162.06 184.47,161.63 184.86,161.18 185.24,160.71 185.63,160.22 186.02,159.71 186.4,159.17 186.79,158.6 187.18,158.01 187.56,157.37 187.95,156.72 188.34,156.03 188.72,155.32 189.11,154.58 189.5,153.83 189.88,153.06 190.27,152.27 190.66,151.46 191.04,150.65 191.43,149.84 191.82,149.01 192.2,148.18 192.59,147.35 192.98,146.52 193.36,145.68 193.75,144.84 194.13,144 194.52,143.15 194.91,142.3 195.29,141.44 195.68,140.56 196.07,139.68 196.45,138.79 196.84,137.88 197.23,136.97 197.61,136.04 198,135.09 198.39,134.14 198.77,133.17 199.16,132.2 199.55,131.22 199.93,130.23 200.32,129.25 200.71,128.26 201.09,127.29 201.48,126.31 201.87,125.35 202.25,124.41 202.64,123.47 203.03,122.56 203.41,121.67 203.8,120.81 204.19,119.96 204.57,119.14 204.96,118.34 205.35,117.56 205.73,116.8 206.12,116.07 206.51,115.35 206.89,114.65 207.28,113.96 207.66,113.28 208.05,112.6 208.44,111.94 208.82,111.28 209.21,110.62 209.6,109.96 209.98,109.3 210.37,108.64 210.76,107.98 211.14,107.32 211.53,106.66 211.92,106 212.3,105.34 212.69,104.68 213.08,104.02 213.46,103.36 213.85,102.71 214.24,102.06 214.62,101.42 215.01,100.78 215.4,100.14 215.78,99.51 216.17,98.88 216.56,98.26 216.94,97.64 217.33,97.03 217.72,96.42 218.1,95.81 218.49,95.21 218.88,94.61 219.26,94.03 219.65,93.44 220.04,92.87 220.42,92.3 220.81,91.74 221.2,91.19 221.58,90.65 221.97,90.12 222.35,89.61 222.74,89.11 223.13,88.62 223.51,88.15 223.9,87.7 224.29,87.26 224.67,86.84 225.06,86.44 225.45,86.05 225.83,85.67 226.22,85.31 226.61,84.97 226.99,84.64 227.38,84.32 227.77,84 228.15,83.7 228.54,83.41 228.93,83.12 229.31,82.83 229.7,82.55 230.09,82.28 230.47,82 230.86,81.72 231.25,81.45 231.63,81.17 232.02,80.9 232.41,80.62 232.79,80.34 233.18,80.06 233.57,79.78 233.95,79.5 234.34,79.22 234.73,78.93 235.11,78.65 235.5,78.36 235.88,78.07 236.27,77.79 236.66,77.51 237.04,77.22 237.43,76.94 237.82,76.67 238.2,76.39 238.59,76.13 238.98,75.86 239.36,75.6 239.75,75.35 240.14,75.1 240.52,74.85 240.91,74.61 241.3,74.37 241.68,74.13 242.07,73.89 242.46,73.65 242.84,73.4 243.23,73.15 243.62,72.89 244,72.61 244.39,72.33 244.78,72.02 245.16,71.7 245.55,71.35 245.94,70.99 246.32,70.6 246.71,70.19 247.1,69.76 247.48,69.31 247.87,68.85 248.26,68.36 248.64,67.87 249.03,67.36 249.42,66.85 249.8,66.34 250.19,65.83 250.57,65.33 250.96,64.83 251.35,64.36 251.73,63.9 252.12,63.46 252.51,63.04 252.89,62.64 253.28,62.28 253.67,61.94 254.05,61.64 254.44,61.36 254.83,61.1 255.21,60.88 255.6,60.68 255.99,60.5 256.37,60.35 256.76,60.22 257.15,60.11 257.53,60.01 257.92,59.93 258.31,59.86 258.69,59.81 259.08,59.76 259.47,59.72 259.85,59.69 260.24,59.67 260.63,59.65 261.01,59.63 261.4,59.62 261.79,59.61 262.17,59.61" stroke-dasharray="none" stroke="rgb(31,120,180)" stroke-width="0.75" opacity="1" stroke-opacity="1" fill="none"/>
          </g>
          <g id="Fig:densplot_01.xyplot.lines.group.4.panel.1.1.1">
            <polyline id="Fig:densplot_01.xyplot.lines.group.4.panel.1.1.1.1" points="64.78,59.64 65.16,59.66 65.55,59.68 65.94,59.71 66.32,59.75 66.71,59.81 67.09,59.87 67.48,59.96 67.87,60.06 68.25,60.2 68.64,60.36 69.02,60.56 69.41,60.8 69.79,61.09 70.18,61.43 70.57,61.84 70.95,62.33 71.34,62.89 71.72,63.54 72.11,64.28 72.5,65.11 72.88,66.05 73.27,67.12 73.65,68.3 74.04,69.61 74.43,71.03 74.81,72.56 75.2,74.21 75.58,75.98 75.97,77.86 76.36,79.84 76.74,81.9 77.13,84.04 77.51,86.24 77.9,88.49 78.29,90.77 78.67,93.08 79.06,95.38 79.44,97.67 79.83,99.93 80.21,102.15 80.6,104.32 80.99,106.42 81.37,108.44 81.76,110.36 82.14,112.2 82.53,113.94 82.92,115.58 83.3,117.13 83.69,118.57 84.07,119.89 84.46,121.12 84.85,122.25 85.23,123.3 85.62,124.26 86,125.15 86.39,125.96 86.78,126.69 87.16,127.37 87.55,128 87.93,128.58 88.32,129.12 88.71,129.63 89.09,130.1 89.48,130.55 89.86,130.99 90.25,131.41 90.63,131.82 91.02,132.22 91.41,132.62 91.79,133.02 92.18,133.42 92.56,133.81 92.95,134.22 93.34,134.62 93.72,135.04 94.11,135.45 94.49,135.88 94.88,136.32 95.27,136.76 95.65,137.22 96.04,137.68 96.42,138.16 96.81,138.65 97.2,139.15 97.58,139.68 97.97,140.22 98.35,140.77 98.74,141.35 99.13,141.94 99.51,142.55 99.9,143.19 100.28,143.84 100.67,144.52 101.05,145.21 101.44,145.93 101.83,146.66 102.21,147.4 102.6,148.16 102.98,148.94 103.37,149.72 103.76,150.51 104.14,151.31 104.53,152.11 104.91,152.91 105.3,153.72 105.69,154.53 106.07,155.34 106.46,156.15 106.84,156.96 107.23,157.78 107.62,158.6 108,159.43 108.39,160.26 108.77,161.11 109.16,161.96 109.54,162.83 109.93,163.71 110.32,164.61 110.7,165.52 111.09,166.46 111.47,167.41 111.86,168.37 112.25,169.35 112.63,170.34 113.02,171.35 113.4,172.36 113.79,173.39 114.18,174.41 114.56,175.43 114.95,176.45 115.33,177.46 115.72,178.46 116.11,179.44 116.49,180.4 116.88,181.34 117.26,182.26 117.65,183.15 118.04,184.01 118.42,184.85 118.81,185.65 119.19,186.43 119.58,187.17 119.96,187.9 120.35,188.6 120.74,189.28 121.12,189.95 121.51,190.6 121.89,191.25 122.28,191.89 122.67,192.53 123.05,193.18 123.44,193.84 123.82,194.51 124.21,195.19 124.6,195.88 124.98,196.6 125.37,197.32 125.75,198.07 126.14,198.82 126.53,199.59 126.91,200.37 127.3,201.15 127.68,201.94 128.07,202.72 128.46,203.5 128.84,204.28 129.23,205.04 129.61,205.79 130,206.53 130.38,207.26 130.77,207.96 131.16,208.66 131.54,209.33 131.93,209.99 132.31,210.62 132.7,211.25 133.09,211.85 133.47,212.45 133.86,213.02 134.24,213.59 134.63,214.13 135.02,214.66 135.4,215.18 135.79,215.68 136.17,216.16 136.56,216.62 136.95,217.06 137.33,217.48 137.72,217.87 138.1,218.23 138.49,218.57 138.88,218.87 139.26,219.15 139.65,219.39 140.03,219.59 140.42,219.76 140.8,219.9 141.19,220.01 141.58,220.08 141.96,220.12 142.35,220.12 142.73,220.1 143.12,220.04 143.51,219.96 143.89,219.86 144.28,219.73 144.66,219.58 145.05,219.41 145.44,219.21 145.82,219 146.21,218.76 146.59,218.51 146.98,218.24 147.37,217.95 147.75,217.64 148.14,217.31 148.52,216.96 148.91,216.6 149.3,216.21 149.68,215.81 150.07,215.39 150.45,214.95 150.84,214.49 151.22,214.01 151.61,213.52 152,213 152.38,212.48 152.77,211.93 153.15,211.37 153.54,210.79 153.93,210.19 154.31,209.57 154.7,208.94 155.08,208.29 155.47,207.63 155.86,206.94 156.24,206.24 156.63,205.53 157.01,204.8 157.4,204.07 157.79,203.32 158.17,202.57 158.56,201.81 158.94,201.06 159.33,200.31 159.72,199.56 160.1,198.82 160.49,198.1 160.87,197.38 161.26,196.69 161.64,196.01 162.03,195.35 162.42,194.71 162.8,194.08 163.19,193.47 163.57,192.88 163.96,192.3 164.35,191.73 164.73,191.16 165.12,190.61 165.5,190.06 165.89,189.5 166.28,188.95 166.66,188.39 167.05,187.82 167.43,187.25 167.82,186.67 168.21,186.07 168.59,185.47 168.98,184.85 169.36,184.21 169.75,183.57 170.14,182.91 170.52,182.25 170.91,181.58 171.29,180.89 171.68,180.21 172.06,179.52 172.45,178.84 172.84,178.16 173.22,177.49 173.61,176.84 173.99,176.2 174.38,175.58 174.77,174.99 175.15,174.43 175.54,173.89 175.92,173.39 176.31,172.92 176.7,172.48 177.08,172.07 177.47,171.7 177.85,171.35 178.24,171.02 178.63,170.71 179.01,170.41 179.4,170.12 179.78,169.83 180.17,169.53 180.56,169.21 180.94,168.88 181.33,168.52 181.71,168.13 182.1,167.71 182.48,167.25 182.87,166.75 183.26,166.21 183.64,165.63 184.03,165.02 184.41,164.37 184.8,163.69 185.19,162.99 185.57,162.26 185.96,161.52 186.34,160.76 186.73,160 187.12,159.24 187.5,158.47 187.89,157.72 188.27,156.97 188.66,156.23 189.05,155.5 189.43,154.79 189.82,154.08 190.2,153.39 190.59,152.7 190.98,152.02 191.36,151.33 191.75,150.65 192.13,149.96 192.52,149.25 192.9,148.53 193.29,147.79 193.68,147.03 194.06,146.24 194.45,145.43 194.83,144.59 195.22,143.72 195.61,142.82 195.99,141.88 196.38,140.92 196.76,139.93 197.15,138.92 197.54,137.88 197.92,136.83 198.31,135.75 198.69,134.66 199.08,133.57 199.47,132.46 199.85,131.35 200.24,130.24 200.62,129.12 201.01,128.02 201.4,126.91 201.78,125.82 202.17,124.73 202.55,123.65 202.94,122.59 203.32,121.54 203.71,120.5 204.1,119.48 204.48,118.48 204.87,117.49 205.25,116.53 205.64,115.58 206.03,114.65 206.41,113.75 206.8,112.87 207.18,112.01 207.57,111.17 207.96,110.35 208.34,109.56 208.73,108.78 209.11,108.03 209.5,107.3 209.89,106.58 210.27,105.88 210.66,105.2 211.04,104.53 211.43,103.86 211.82,103.21 212.2,102.57 212.59,101.92 212.97,101.29 213.36,100.65 213.74,100.02 214.13,99.38 214.52,98.75 214.9,98.12 215.29,97.49 215.67,96.86 216.06,96.23 216.45,95.61 216.83,95 217.22,94.39 217.6,93.8 217.99,93.22 218.38,92.65 218.76,92.1 219.15,91.57 219.53,91.06 219.92,90.57 220.31,90.1 220.69,89.65 221.08,89.22 221.46,88.81 221.85,88.42 222.24,88.06 222.62,87.71 223.01,87.38 223.39,87.06 223.78,86.76 224.16,86.47 224.55,86.19 224.94,85.92 225.32,85.65 225.71,85.38 226.09,85.12 226.48,84.86 226.87,84.6 227.25,84.34 227.64,84.08 228.02,83.81 228.41,83.54 228.8,83.27 229.18,83 229.57,82.72 229.95,82.43 230.34,82.15 230.73,81.86 231.11,81.57 231.5,81.28 231.88,80.98 232.27,80.69 232.66,80.4 233.04,80.11 233.43,79.82 233.81,79.53 234.2,79.24 234.58,78.96 234.97,78.68 235.36,78.4 235.74,78.13 236.13,77.86 236.51,77.6 236.9,77.33 237.29,77.08 237.67,76.82 238.06,76.57 238.44,76.33 238.83,76.08 239.22,75.84 239.6,75.6 239.99,75.35 240.37,75.11 240.76,74.87 241.15,74.62 241.53,74.36 241.92,74.1 242.3,73.83 242.69,73.55 243.08,73.26 243.46,72.96 243.85,72.64 244.23,72.3 244.62,71.95 245,71.58 245.39,71.19 245.78,70.79 246.16,70.36 246.55,69.92 246.93,69.46 247.32,68.98 247.71,68.5 248.09,68.01 248.48,67.5 248.86,67 249.25,66.49 249.64,65.99 250.02,65.49 250.41,65 250.79,64.53 251.18,64.07 251.57,63.63 251.95,63.22 252.34,62.82 252.72,62.46 253.11,62.11 253.49,61.79 253.88,61.5 254.27,61.24 254.65,61.01 255.04,60.8 255.42,60.61 255.81,60.45 256.2,60.3 256.58,60.18 256.97,60.07 257.35,59.99 257.74,59.91 258.13,59.85 258.51,59.79 258.9,59.75 259.28,59.71 259.67,59.69 260.06,59.66 260.44,59.65 260.83,59.63 261.21,59.62 261.6,59.61 261.99,59.6" stroke-dasharray="none" stroke="rgb(31,120,180)" stroke-width="0.75" opacity="1" stroke-opacity="1" fill="none"/>
          </g>
          <g id="Fig:densplot_01.xyplot.lines.group.5.panel.1.1.1">
            <polyline id="Fig:densplot_01.xyplot.lines.group.5.panel.1.1.1.1" points="64.93,59.61 65.31,59.62 65.7,59.64 66.08,59.65 66.47,59.68 66.86,59.71 67.24,59.74 67.63,59.79 68.01,59.85 68.4,59.93 68.78,60.03 69.17,60.14 69.55,60.28 69.94,60.46 70.32,60.67 70.71,60.92 71.09,61.21 71.48,61.56 71.86,61.96 72.25,62.42 72.64,62.96 73.02,63.58 73.41,64.28 73.79,65.07 74.18,65.94 74.56,66.9 74.95,67.96 75.33,69.14 75.72,70.42 76.1,71.79 76.49,73.26 76.87,74.82 77.26,76.46 77.64,78.2 78.03,80.02 78.42,81.91 78.8,83.85 79.19,85.85 79.57,87.88 79.96,89.94 80.34,92.03 80.73,94.12 81.11,96.21 81.5,98.28 81.88,100.33 82.27,102.35 82.65,104.33 83.04,106.27 83.43,108.15 83.81,109.97 84.2,111.73 84.58,113.42 84.97,115.05 85.35,116.62 85.74,118.12 86.12,119.54 86.51,120.89 86.89,122.18 87.28,123.42 87.66,124.59 88.05,125.71 88.43,126.77 88.82,127.78 89.21,128.73 89.59,129.65 89.98,130.53 90.36,131.37 90.75,132.17 91.13,132.95 91.52,133.69 91.9,134.4 92.29,135.1 92.67,135.78 93.06,136.44 93.44,137.08 93.83,137.71 94.21,138.33 94.6,138.94 94.99,139.55 95.37,140.15 95.76,140.75 96.14,141.34 96.53,141.94 96.91,142.54 97.3,143.14 97.68,143.74 98.07,144.36 98.45,144.98 98.84,145.61 99.22,146.26 99.61,146.92 100,147.6 100.38,148.3 100.77,149.01 101.15,149.75 101.54,150.51 101.92,151.3 102.31,152.11 102.69,152.95 103.08,153.81 103.46,154.69 103.85,155.59 104.23,156.51 104.62,157.44 105,158.39 105.39,159.35 105.78,160.32 106.16,161.29 106.55,162.26 106.93,163.23 107.32,164.19 107.7,165.14 108.09,166.08 108.47,167.02 108.86,167.94 109.24,168.86 109.63,169.76 110.01,170.66 110.4,171.55 110.78,172.43 111.17,173.32 111.56,174.2 111.94,175.09 112.33,175.99 112.71,176.89 113.1,177.81 113.48,178.74 113.87,179.68 114.25,180.63 114.64,181.6 115.02,182.57 115.41,183.56 115.79,184.56 116.18,185.57 116.57,186.58 116.95,187.59 117.34,188.61 117.72,189.61 118.11,190.61 118.49,191.59 118.88,192.56 119.26,193.51 119.65,194.43 120.03,195.34 120.42,196.21 120.8,197.06 121.19,197.87 121.57,198.66 121.96,199.41 122.35,200.14 122.73,200.83 123.12,201.5 123.5,202.14 123.89,202.75 124.27,203.35 124.66,203.93 125.04,204.5 125.43,205.05 125.81,205.6 126.2,206.15 126.58,206.7 126.97,207.25 127.35,207.81 127.74,208.38 128.13,208.96 128.51,209.55 128.9,210.15 129.28,210.77 129.67,211.39 130.05,212.03 130.44,212.67 130.82,213.32 131.21,213.97 131.59,214.62 131.98,215.27 132.36,215.9 132.75,216.53 133.14,217.14 133.52,217.74 133.91,218.31 134.29,218.85 134.68,219.37 135.06,219.85 135.45,220.3 135.83,220.71 136.22,221.09 136.6,221.42 136.99,221.71 137.37,221.96 137.76,222.17 138.14,222.34 138.53,222.46 138.92,222.55 139.3,222.59 139.69,222.59 140.07,222.55 140.46,222.48 140.84,222.37 141.23,222.23 141.61,222.06 142,221.85 142.38,221.62 142.77,221.37 143.15,221.09 143.54,220.79 143.92,220.48 144.31,220.15 144.7,219.81 145.08,219.46 145.47,219.09 145.85,218.72 146.24,218.34 146.62,217.94 147.01,217.54 147.39,217.13 147.78,216.71 148.16,216.27 148.55,215.81 148.93,215.33 149.32,214.83 149.7,214.3 150.09,213.73 150.48,213.13 150.86,212.49 151.25,211.81 151.63,211.09 152.02,210.33 152.4,209.53 152.79,208.68 153.17,207.78 153.56,206.84 153.94,205.88 154.33,204.88 154.71,203.85 155.1,202.81 155.49,201.75 155.87,200.69 156.26,199.63 156.64,198.58 157.03,197.54 157.41,196.53 157.8,195.55 158.18,194.6 158.57,193.7 158.95,192.85 159.34,192.05 159.72,191.3 160.11,190.6 160.49,189.96 160.88,189.38 161.27,188.85 161.65,188.38 162.04,187.95 162.42,187.56 162.81,187.22 163.19,186.91 163.58,186.64 163.96,186.4 164.35,186.17 164.73,185.97 165.12,185.77 165.5,185.58 165.89,185.39 166.27,185.2 166.66,184.99 167.05,184.78 167.43,184.55 167.82,184.31 168.2,184.04 168.59,183.76 168.97,183.45 169.36,183.11 169.74,182.75 170.13,182.37 170.51,181.97 170.9,181.54 171.28,181.1 171.67,180.64 172.06,180.16 172.44,179.67 172.83,179.17 173.21,178.66 173.6,178.14 173.98,177.63 174.37,177.11 174.75,176.59 175.14,176.08 175.52,175.57 175.91,175.07 176.29,174.57 176.68,174.09 177.06,173.61 177.45,173.14 177.84,172.67 178.22,172.22 178.61,171.77 178.99,171.33 179.38,170.89 179.76,170.45 180.15,170 180.53,169.56 180.92,169.11 181.3,168.64 181.69,168.17 182.07,167.68 182.46,167.16 182.84,166.63 183.23,166.07 183.62,165.49 184,164.89 184.39,164.25 184.77,163.6 185.16,162.91 185.54,162.19 185.93,161.45 186.31,160.69 186.7,159.91 187.08,159.11 187.47,158.29 187.85,157.45 188.24,156.61 188.63,155.76 189.01,154.9 189.4,154.04 189.78,153.18 190.17,152.32 190.55,151.46 190.94,150.61 191.32,149.77 191.71,148.93 192.09,148.09 192.48,147.27 192.86,146.45 193.25,145.63 193.63,144.82 194.02,144.02 194.41,143.21 194.79,142.41 195.18,141.6 195.56,140.8 195.95,139.98 196.33,139.16 196.72,138.32 197.1,137.48 197.49,136.63 197.87,135.76 198.26,134.87 198.64,133.97 199.03,133.05 199.41,132.11 199.8,131.16 200.19,130.19 200.57,129.21 200.96,128.21 201.34,127.2 201.73,126.18 202.11,125.15 202.5,124.11 202.88,123.07 203.27,122.04 203.65,121 204.04,119.97 204.42,118.95 204.81,117.94 205.2,116.94 205.58,115.96 205.97,114.99 206.35,114.04 206.74,113.11 207.12,112.2 207.51,111.3 207.89,110.43 208.28,109.57 208.66,108.73 209.05,107.9 209.43,107.1 209.82,106.31 210.2,105.53 210.59,104.76 210.98,104.01 211.36,103.27 211.75,102.55 212.13,101.84 212.52,101.14 212.9,100.46 213.29,99.78 213.67,99.13 214.06,98.49 214.44,97.86 214.83,97.25 215.21,96.66 215.6,96.08 215.98,95.52 216.37,94.97 216.76,94.44 217.14,93.93 217.53,93.43 217.91,92.94 218.3,92.46 218.68,92 219.07,91.54 219.45,91.1 219.84,90.66 220.22,90.23 220.61,89.8 220.99,89.38 221.38,88.96 221.77,88.55 222.15,88.14 222.54,87.73 222.92,87.33 223.31,86.93 223.69,86.53 224.08,86.13 224.46,85.75 224.85,85.36 225.23,84.98 225.62,84.61 226,84.25 226.39,83.89 226.77,83.54 227.16,83.19 227.55,82.85 227.93,82.52 228.32,82.2 228.7,81.88 229.09,81.56 229.47,81.25 229.86,80.94 230.24,80.64 230.63,80.34 231.01,80.04 231.4,79.74 231.78,79.44 232.17,79.14 232.55,78.84 232.94,78.55 233.33,78.26 233.71,77.97 234.1,77.68 234.48,77.39 234.87,77.12 235.25,76.84 235.64,76.58 236.02,76.32 236.41,76.07 236.79,75.84 237.18,75.61 237.56,75.39 237.95,75.17 238.34,74.97 238.72,74.78 239.11,74.59 239.49,74.41 239.88,74.23 240.26,74.05 240.65,73.87 241.03,73.69 241.42,73.5 241.8,73.31 242.19,73.11 242.57,72.89 242.96,72.67 243.34,72.42 243.73,72.16 244.12,71.88 244.5,71.58 244.89,71.26 245.27,70.92 245.66,70.55 246.04,70.17 246.43,69.76 246.81,69.33 247.2,68.88 247.58,68.42 247.97,67.94 248.35,67.45 248.74,66.96 249.12,66.46 249.51,65.96 249.9,65.47 250.28,64.98 250.67,64.51 251.05,64.05 251.44,63.61 251.82,63.18 252.21,62.79 252.59,62.42 252.98,62.07 253.36,61.76 253.75,61.47 254.13,61.2 254.52,60.96 254.91,60.76 255.29,60.57 255.68,60.41 256.06,60.27 256.45,60.15 256.83,60.05 257.22,59.96 257.6,59.89 257.99,59.83 258.37,59.78 258.76,59.74 259.14,59.7 259.53,59.68 259.91,59.65 260.3,59.64 260.69,59.63 261.07,59.62 261.46,59.61 261.84,59.6" stroke-dasharray="none" stroke="rgb(31,120,180)" stroke-width="0.75" opacity="1" stroke-opacity="1" fill="none"/>
          </g>
          <g id="Fig:densplot_01.xyplot.lines.group.6.panel.1.1.1">
            <polyline id="Fig:densplot_01.xyplot.lines.group.6.panel.1.1.1.1" points="64.82,59.62 65.2,59.64 65.59,59.65 65.97,59.68 66.36,59.71 66.75,59.75 67.13,59.8 67.52,59.86 67.9,59.93 68.29,60.03 68.68,60.16 69.06,60.3 69.45,60.49 69.83,60.7 70.22,60.96 70.61,61.27 70.99,61.64 71.38,62.07 71.76,62.58 72.15,63.15 72.53,63.81 72.92,64.56 73.31,65.41 73.69,66.37 74.08,67.43 74.46,68.6 74.85,69.89 75.24,71.28 75.62,72.79 76.01,74.42 76.39,76.16 76.78,78.01 77.17,79.95 77.55,81.98 77.94,84.09 78.32,86.27 78.71,88.52 79.09,90.81 79.48,93.14 79.87,95.48 80.25,97.83 80.64,100.17 81.02,102.49 81.41,104.78 81.8,107.01 82.18,109.2 82.57,111.31 82.95,113.36 83.34,115.33 83.72,117.21 84.11,118.98 84.5,120.66 84.88,122.25 85.27,123.74 85.65,125.14 86.04,126.44 86.43,127.66 86.81,128.77 87.2,129.8 87.58,130.76 87.97,131.65 88.36,132.47 88.74,133.23 89.13,133.93 89.51,134.59 89.9,135.2 90.28,135.78 90.67,136.33 91.06,136.86 91.44,137.37 91.83,137.87 92.21,138.36 92.6,138.84 92.99,139.33 93.37,139.81 93.76,140.31 94.14,140.8 94.53,141.31 94.91,141.82 95.3,142.35 95.69,142.88 96.07,143.42 96.46,143.97 96.84,144.53 97.23,145.09 97.62,145.67 98,146.25 98.39,146.84 98.77,147.44 99.16,148.05 99.55,148.66 99.93,149.28 100.32,149.92 100.7,150.56 101.09,151.21 101.47,151.87 101.86,152.53 102.25,153.21 102.63,153.89 103.02,154.58 103.4,155.27 103.79,155.96 104.18,156.65 104.56,157.35 104.95,158.05 105.33,158.74 105.72,159.44 106.1,160.13 106.49,160.82 106.88,161.51 107.26,162.21 107.65,162.91 108.03,163.61 108.42,164.32 108.81,165.04 109.19,165.78 109.58,166.52 109.96,167.28 110.35,168.06 110.74,168.85 111.12,169.66 111.51,170.49 111.89,171.33 112.28,172.19 112.66,173.06 113.05,173.94 113.44,174.83 113.82,175.72 114.21,176.62 114.59,177.51 114.98,178.41 115.37,179.3 115.75,180.18 116.14,181.05 116.52,181.91 116.91,182.75 117.3,183.59 117.68,184.4 118.07,185.21 118.45,185.99 118.84,186.76 119.22,187.52 119.61,188.26 120,188.99 120.38,189.72 120.77,190.43 121.15,191.13 121.54,191.83 121.93,192.53 122.31,193.22 122.7,193.91 123.08,194.61 123.47,195.3 123.85,196 124.24,196.7 124.63,197.4 125.01,198.11 125.4,198.81 125.78,199.52 126.17,200.22 126.56,200.92 126.94,201.61 127.33,202.29 127.71,202.96 128.1,203.62 128.49,204.27 128.87,204.9 129.26,205.51 129.64,206.11 130.03,206.69 130.41,207.25 130.8,207.79 131.19,208.31 131.57,208.82 131.96,209.31 132.34,209.79 132.73,210.27 133.12,210.73 133.5,211.18 133.89,211.64 134.27,212.08 134.66,212.53 135.04,212.98 135.43,213.42 135.82,213.87 136.2,214.32 136.59,214.76 136.97,215.21 137.36,215.65 137.75,216.08 138.13,216.51 138.52,216.92 138.9,217.32 139.29,217.69 139.68,218.05 140.06,218.38 140.45,218.68 140.83,218.94 141.22,219.16 141.6,219.35 141.99,219.49 142.38,219.58 142.76,219.61 143.15,219.59 143.53,219.52 143.92,219.39 144.31,219.2 144.69,218.96 145.08,218.65 145.46,218.28 145.85,217.86 146.23,217.38 146.62,216.86 147.01,216.3 147.39,215.69 147.78,215.05 148.16,214.37 148.55,213.67 148.94,212.95 149.32,212.21 149.71,211.46 150.09,210.71 150.48,209.95 150.87,209.19 151.25,208.43 151.64,207.68 152.02,206.94 152.41,206.2 152.79,205.47 153.18,204.76 153.57,204.05 153.95,203.35 154.34,202.67 154.72,201.99 155.11,201.33 155.5,200.67 155.88,200.02 156.27,199.38 156.65,198.75 157.04,198.12 157.43,197.5 157.81,196.88 158.2,196.28 158.58,195.67 158.97,195.08 159.35,194.49 159.74,193.91 160.13,193.33 160.51,192.77 160.9,192.21 161.28,191.67 161.67,191.14 162.06,190.63 162.44,190.13 162.83,189.64 163.21,189.17 163.6,188.71 163.98,188.27 164.37,187.84 164.76,187.42 165.14,187.01 165.53,186.6 165.91,186.2 166.3,185.8 166.69,185.41 167.07,185 167.46,184.6 167.84,184.18 168.23,183.76 168.62,183.33 169,182.89 169.39,182.44 169.77,181.98 170.16,181.52 170.54,181.05 170.93,180.58 171.32,180.1 171.7,179.63 172.09,179.17 172.47,178.71 172.86,178.26 173.25,177.82 173.63,177.39 174.02,176.97 174.4,176.58 174.79,176.19 175.17,175.82 175.56,175.47 175.95,175.12 176.33,174.79 176.72,174.47 177.1,174.15 177.49,173.84 177.88,173.52 178.26,173.21 178.65,172.89 179.03,172.56 179.42,172.22 179.81,171.86 180.19,171.48 180.58,171.09 180.96,170.67 181.35,170.24 181.73,169.78 182.12,169.3 182.51,168.79 182.89,168.26 183.28,167.72 183.66,167.15 184.05,166.57 184.44,165.97 184.82,165.36 185.21,164.74 185.59,164.12 185.98,163.49 186.37,162.85 186.75,162.22 187.14,161.58 187.52,160.94 187.91,160.29 188.29,159.65 188.68,159 189.07,158.34 189.45,157.67 189.84,156.99 190.22,156.29 190.61,155.57 191,154.83 191.38,154.06 191.77,153.27 192.15,152.45 192.54,151.6 192.92,150.72 193.31,149.8 193.7,148.86 194.08,147.89 194.47,146.89 194.85,145.87 195.24,144.83 195.63,143.77 196.01,142.69 196.4,141.6 196.78,140.51 197.17,139.41 197.56,138.31 197.94,137.21 198.33,136.11 198.71,135.02 199.1,133.93 199.48,132.86 199.87,131.79 200.26,130.72 200.64,129.67 201.03,128.62 201.41,127.59 201.8,126.56 202.19,125.53 202.57,124.51 202.96,123.49 203.34,122.48 203.73,121.48 204.11,120.47 204.5,119.48 204.89,118.48 205.27,117.49 205.66,116.51 206.04,115.54 206.43,114.57 206.82,113.61 207.2,112.66 207.59,111.72 207.97,110.79 208.36,109.88 208.75,108.98 209.13,108.09 209.52,107.22 209.9,106.36 210.29,105.52 210.67,104.69 211.06,103.88 211.45,103.09 211.83,102.31 212.22,101.54 212.6,100.79 212.99,100.06 213.38,99.34 213.76,98.63 214.15,97.94 214.53,97.27 214.92,96.61 215.3,95.96 215.69,95.33 216.08,94.72 216.46,94.13 216.85,93.56 217.23,93.01 217.62,92.48 218.01,91.97 218.39,91.48 218.78,91.01 219.16,90.56 219.55,90.14 219.94,89.74 220.32,89.35 220.71,88.98 221.09,88.63 221.48,88.29 221.86,87.96 222.25,87.65 222.64,87.34 223.02,87.03 223.41,86.73 223.79,86.43 224.18,86.12 224.57,85.82 224.95,85.51 225.34,85.19 225.72,84.87 226.11,84.54 226.5,84.21 226.88,83.87 227.27,83.52 227.65,83.18 228.04,82.83 228.42,82.47 228.81,82.12 229.2,81.77 229.58,81.42 229.97,81.07 230.35,80.73 230.74,80.39 231.13,80.06 231.51,79.74 231.9,79.42 232.28,79.11 232.67,78.81 233.05,78.52 233.44,78.23 233.83,77.96 234.21,77.7 234.6,77.44 234.98,77.2 235.37,76.96 235.76,76.74 236.14,76.52 236.53,76.31 236.91,76.12 237.3,75.93 237.69,75.74 238.07,75.57 238.46,75.4 238.84,75.23 239.23,75.07 239.61,74.91 240,74.75 240.39,74.59 240.77,74.43 241.16,74.26 241.54,74.08 241.93,73.89 242.32,73.7 242.7,73.49 243.09,73.26 243.47,73.01 243.86,72.74 244.24,72.45 244.63,72.14 245.02,71.81 245.4,71.45 245.79,71.06 246.17,70.65 246.56,70.22 246.95,69.77 247.33,69.3 247.72,68.81 248.1,68.3 248.49,67.79 248.88,67.27 249.26,66.75 249.65,66.23 250.03,65.71 250.42,65.2 250.8,64.71 251.19,64.23 251.58,63.77 251.96,63.34 252.35,62.93 252.73,62.54 253.12,62.19 253.51,61.86 253.89,61.56 254.28,61.29 254.66,61.04 255.05,60.82 255.43,60.63 255.82,60.46 256.21,60.31 256.59,60.19 256.98,60.08 257.36,59.99 257.75,59.91 258.14,59.85 258.52,59.79 258.91,59.75 259.29,59.71 259.68,59.69 260.07,59.66 260.45,59.65 260.84,59.63 261.22,59.62 261.61,59.61 261.99,59.6" stroke-dasharray="none" stroke="rgb(31,120,180)" stroke-width="0.75" opacity="1" stroke-opacity="1" fill="none"/>
          </g>
          <g id="Fig:densplot_01.xyplot.lines.group.7.panel.1.1.1">
            <polyline id="Fig:densplot_01.xyplot.lines.group.7.panel.1.1.1.1" points="64.93,59.63 65.32,59.64 65.7,59.66 66.09,59.69 66.47,59.72 66.86,59.77 67.24,59.82 67.63,59.9 68.01,59.99 68.4,60.1 68.78,60.24 69.17,60.4 69.55,60.6 69.94,60.85 70.33,61.15 70.71,61.5 71.1,61.92 71.48,62.4 71.87,62.95 72.25,63.58 72.64,64.32 73.02,65.15 73.41,66.08 73.79,67.11 74.18,68.25 74.56,69.5 74.95,70.85 75.33,72.34 75.72,73.93 76.1,75.62 76.49,77.4 76.87,79.28 77.26,81.23 77.64,83.26 78.03,85.36 78.41,87.51 78.8,89.69 79.18,91.9 79.57,94.12 79.96,96.35 80.34,98.56 80.73,100.75 81.11,102.9 81.5,105 81.88,107.06 82.27,109.05 82.65,110.98 83.04,112.84 83.42,114.61 83.81,116.29 84.19,117.89 84.58,119.41 84.96,120.84 85.35,122.19 85.73,123.44 86.12,124.6 86.5,125.67 86.89,126.67 87.27,127.59 87.66,128.44 88.04,129.22 88.43,129.94 88.82,130.59 89.2,131.19 89.59,131.75 89.97,132.27 90.36,132.76 90.74,133.23 91.13,133.68 91.51,134.11 91.9,134.55 92.28,134.99 92.67,135.44 93.05,135.9 93.44,136.38 93.82,136.88 94.21,137.41 94.59,137.97 94.98,138.55 95.36,139.15 95.75,139.79 96.13,140.45 96.52,141.14 96.9,141.85 97.29,142.58 97.67,143.34 98.06,144.11 98.45,144.89 98.83,145.69 99.22,146.49 99.6,147.31 99.99,148.14 100.37,148.97 100.76,149.8 101.14,150.64 101.53,151.49 101.91,152.33 102.3,153.17 102.68,154.02 103.07,154.86 103.45,155.71 103.84,156.55 104.22,157.39 104.61,158.22 104.99,159.05 105.38,159.88 105.76,160.7 106.15,161.51 106.53,162.32 106.92,163.12 107.31,163.92 107.69,164.72 108.08,165.51 108.46,166.29 108.85,167.07 109.23,167.85 109.62,168.62 110,169.39 110.39,170.16 110.77,170.92 111.16,171.68 111.54,172.44 111.93,173.19 112.31,173.94 112.7,174.69 113.08,175.43 113.47,176.17 113.85,176.91 114.24,177.64 114.62,178.38 115.01,179.11 115.39,179.83 115.78,180.56 116.16,181.29 116.55,182.01 116.94,182.73 117.32,183.45 117.71,184.17 118.09,184.88 118.48,185.59 118.86,186.3 119.25,186.99 119.63,187.68 120.02,188.36 120.4,189.04 120.79,189.7 121.17,190.36 121.56,191.02 121.94,191.67 122.33,192.32 122.71,192.97 123.1,193.62 123.48,194.27 123.87,194.94 124.25,195.61 124.64,196.29 125.02,196.97 125.41,197.67 125.8,198.38 126.18,199.1 126.57,199.83 126.95,200.56 127.34,201.3 127.72,202.04 128.11,202.78 128.49,203.51 128.88,204.24 129.26,204.96 129.65,205.67 130.03,206.37 130.42,207.06 130.8,207.74 131.19,208.39 131.57,209.04 131.96,209.66 132.34,210.27 132.73,210.87 133.11,211.45 133.5,212.02 133.88,212.57 134.27,213.11 134.65,213.63 135.04,214.13 135.43,214.63 135.81,215.1 136.2,215.57 136.58,216.02 136.97,216.45 137.35,216.87 137.74,217.27 138.12,217.65 138.51,218.02 138.89,218.36 139.28,218.69 139.66,218.99 140.05,219.26 140.43,219.51 140.82,219.73 141.2,219.93 141.59,220.1 141.97,220.23 142.36,220.33 142.74,220.39 143.13,220.43 143.51,220.43 143.9,220.4 144.29,220.33 144.67,220.24 145.06,220.11 145.44,219.95 145.83,219.76 146.21,219.55 146.6,219.31 146.98,219.04 147.37,218.75 147.75,218.44 148.14,218.1 148.52,217.74 148.91,217.36 149.29,216.95 149.68,216.52 150.06,216.07 150.45,215.59 150.83,215.09 151.22,214.57 151.6,214.03 151.99,213.46 152.37,212.88 152.76,212.29 153.14,211.68 153.53,211.05 153.92,210.42 154.3,209.79 154.69,209.14 155.07,208.5 155.46,207.86 155.84,207.22 156.23,206.59 156.61,205.96 157,205.33 157.38,204.72 157.77,204.11 158.15,203.51 158.54,202.92 158.92,202.34 159.31,201.76 159.69,201.2 160.08,200.64 160.46,200.08 160.85,199.54 161.23,199 161.62,198.46 162,197.93 162.39,197.4 162.77,196.87 163.16,196.35 163.55,195.82 163.93,195.29 164.32,194.76 164.7,194.22 165.09,193.67 165.47,193.11 165.86,192.54 166.24,191.96 166.63,191.37 167.01,190.76 167.4,190.15 167.78,189.52 168.17,188.88 168.55,188.23 168.94,187.58 169.32,186.93 169.71,186.28 170.09,185.63 170.48,184.99 170.86,184.35 171.25,183.74 171.63,183.14 172.02,182.56 172.41,182 172.79,181.46 173.18,180.94 173.56,180.45 173.95,179.97 174.33,179.51 174.72,179.07 175.1,178.64 175.49,178.22 175.87,177.79 176.26,177.37 176.64,176.94 177.03,176.5 177.41,176.04 177.8,175.56 178.18,175.06 178.57,174.54 178.95,173.98 179.34,173.4 179.72,172.78 180.11,172.13 180.49,171.45 180.88,170.74 181.26,170.01 181.65,169.25 182.04,168.47 182.42,167.66 182.81,166.84 183.19,166 183.58,165.16 183.96,164.31 184.35,163.45 184.73,162.59 185.12,161.73 185.5,160.87 185.89,160.02 186.27,159.16 186.66,158.31 187.04,157.47 187.43,156.62 187.81,155.78 188.2,154.94 188.58,154.09 188.97,153.25 189.35,152.39 189.74,151.53 190.12,150.67 190.51,149.79 190.9,148.89 191.28,147.99 191.67,147.07 192.05,146.14 192.44,145.2 192.82,144.24 193.21,143.28 193.59,142.3 193.98,141.32 194.36,140.33 194.75,139.35 195.13,138.36 195.52,137.37 195.9,136.4 196.29,135.43 196.67,134.47 197.06,133.52 197.44,132.59 197.83,131.67 198.21,130.77 198.6,129.89 198.98,129.02 199.37,128.17 199.75,127.33 200.14,126.5 200.53,125.68 200.91,124.87 201.3,124.07 201.68,123.26 202.07,122.46 202.45,121.65 202.84,120.84 203.22,120.03 203.61,119.2 203.99,118.37 204.38,117.53 204.76,116.68 205.15,115.83 205.53,114.97 205.92,114.11 206.3,113.25 206.69,112.39 207.07,111.53 207.46,110.68 207.84,109.84 208.23,109 208.61,108.18 209,107.37 209.39,106.57 209.77,105.79 210.16,105.02 210.54,104.26 210.93,103.52 211.31,102.78 211.7,102.06 212.08,101.35 212.47,100.65 212.85,99.96 213.24,99.27 213.62,98.6 214.01,97.92 214.39,97.25 214.78,96.59 215.16,95.94 215.55,95.29 215.93,94.65 216.32,94.02 216.7,93.4 217.09,92.79 217.47,92.19 217.86,91.6 218.24,91.03 218.63,90.47 219.02,89.93 219.4,89.4 219.79,88.89 220.17,88.4 220.56,87.93 220.94,87.47 221.33,87.03 221.71,86.61 222.1,86.2 222.48,85.81 222.87,85.44 223.25,85.09 223.64,84.74 224.02,84.41 224.41,84.1 224.79,83.79 225.18,83.5 225.56,83.21 225.95,82.94 226.33,82.67 226.72,82.4 227.1,82.15 227.49,81.89 227.88,81.64 228.26,81.39 228.65,81.14 229.03,80.9 229.42,80.65 229.8,80.4 230.19,80.15 230.57,79.9 230.96,79.65 231.34,79.4 231.73,79.15 232.11,78.89 232.5,78.64 232.88,78.4 233.27,78.15 233.65,77.91 234.04,77.67 234.42,77.44 234.81,77.21 235.19,76.98 235.58,76.76 235.96,76.55 236.35,76.34 236.73,76.13 237.12,75.93 237.51,75.73 237.89,75.53 238.28,75.34 238.66,75.14 239.05,74.95 239.43,74.75 239.82,74.55 240.2,74.34 240.59,74.12 240.97,73.9 241.36,73.66 241.74,73.41 242.13,73.15 242.51,72.87 242.9,72.58 243.28,72.27 243.67,71.94 244.05,71.59 244.44,71.22 244.82,70.83 245.21,70.42 245.59,69.99 245.98,69.55 246.37,69.09 246.75,68.62 247.14,68.13 247.52,67.64 247.91,67.15 248.29,66.65 248.68,66.15 249.06,65.65 249.45,65.17 249.83,64.69 250.22,64.23 250.6,63.79 250.99,63.37 251.37,62.97 251.76,62.59 252.14,62.24 252.53,61.92 252.91,61.62 253.3,61.35 253.68,61.1 254.07,60.88 254.45,60.68 254.84,60.51 255.22,60.36 255.61,60.23 256,60.12 256.38,60.02 256.77,59.94 257.15,59.87 257.54,59.81 257.92,59.77 258.31,59.73 258.69,59.7 259.08,59.67 259.46,59.65 259.85,59.64 260.23,59.62 260.62,59.61 261,59.61 261.39,59.6 261.77,59.6" stroke-dasharray="none" stroke="rgb(31,120,180)" stroke-width="0.75" opacity="1" stroke-opacity="1" fill="none"/>
          </g>
          <g id="Fig:densplot_01.xyplot.lines.group.8.panel.1.1.1">
            <polyline id="Fig:densplot_01.xyplot.lines.group.8.panel.1.1.1.1" points="64.87,59.62 65.26,59.63 65.65,59.64 66.03,59.66 66.42,59.68 66.8,59.72 67.19,59.75 67.57,59.8 67.96,59.87 68.35,59.95 68.73,60.05 69.12,60.16 69.5,60.31 69.89,60.48 70.27,60.69 70.66,60.95 71.05,61.25 71.43,61.6 71.82,62 72.2,62.47 72.59,63.01 72.97,63.62 73.36,64.32 73.75,65.11 74.13,65.99 74.52,66.97 74.9,68.03 75.29,69.2 75.67,70.48 76.06,71.87 76.45,73.36 76.83,74.94 77.22,76.62 77.6,78.39 77.99,80.25 78.37,82.19 78.76,84.21 79.15,86.28 79.53,88.41 79.92,90.57 80.3,92.77 80.69,94.98 81.07,97.21 81.46,99.43 81.85,101.63 82.23,103.81 82.62,105.95 83,108.04 83.39,110.09 83.77,112.06 84.16,113.97 84.55,115.8 84.93,117.55 85.32,119.22 85.7,120.81 86.09,122.32 86.47,123.73 86.86,125.05 87.25,126.3 87.63,127.46 88.02,128.56 88.4,129.58 88.79,130.54 89.17,131.43 89.56,132.26 89.95,133.05 90.33,133.79 90.72,134.5 91.1,135.17 91.49,135.82 91.87,136.45 92.26,137.06 92.64,137.66 93.03,138.25 93.42,138.84 93.8,139.43 94.19,140.03 94.57,140.63 94.96,141.23 95.34,141.85 95.73,142.47 96.12,143.11 96.5,143.75 96.89,144.4 97.27,145.07 97.66,145.74 98.04,146.43 98.43,147.12 98.82,147.82 99.2,148.53 99.59,149.25 99.97,149.98 100.36,150.73 100.74,151.48 101.13,152.24 101.52,153.02 101.9,153.81 102.29,154.61 102.67,155.43 103.06,156.26 103.44,157.11 103.83,157.98 104.22,158.85 104.6,159.75 104.99,160.65 105.37,161.57 105.76,162.51 106.14,163.45 106.53,164.41 106.92,165.38 107.3,166.35 107.69,167.33 108.07,168.32 108.46,169.31 108.84,170.31 109.23,171.31 109.62,172.31 110,173.31 110.39,174.31 110.77,175.31 111.16,176.31 111.54,177.3 111.93,178.28 112.32,179.25 112.7,180.22 113.09,181.17 113.47,182.12 113.86,183.04 114.24,183.96 114.63,184.85 115.02,185.73 115.4,186.59 115.79,187.43 116.17,188.24 116.56,189.02 116.94,189.79 117.33,190.52 117.72,191.24 118.1,191.92 118.49,192.58 118.87,193.21 119.26,193.82 119.64,194.41 120.03,194.99 120.41,195.54 120.8,196.09 121.19,196.62 121.57,197.15 121.96,197.68 122.34,198.2 122.73,198.74 123.11,199.28 123.5,199.83 123.89,200.39 124.27,200.97 124.66,201.55 125.04,202.15 125.43,202.76 125.81,203.38 126.2,204 126.59,204.64 126.97,205.27 127.36,205.91 127.74,206.54 128.13,207.17 128.51,207.8 128.9,208.42 129.29,209.04 129.67,209.64 130.06,210.24 130.44,210.83 130.83,211.42 131.21,212 131.6,212.57 131.99,213.14 132.37,213.71 132.76,214.27 133.14,214.83 133.53,215.39 133.91,215.93 134.3,216.47 134.69,217 135.07,217.51 135.46,218.01 135.84,218.48 136.23,218.93 136.61,219.34 137,219.72 137.39,220.05 137.77,220.34 138.16,220.59 138.54,220.78 138.93,220.92 139.31,221.01 139.7,221.03 140.09,220.99 140.47,220.89 140.86,220.74 141.24,220.53 141.63,220.26 142.01,219.94 142.4,219.56 142.79,219.13 143.17,218.65 143.56,218.12 143.94,217.55 144.33,216.94 144.71,216.29 145.1,215.61 145.49,214.89 145.87,214.14 146.26,213.37 146.64,212.58 147.03,211.77 147.41,210.94 147.8,210.11 148.19,209.26 148.57,208.42 148.96,207.57 149.34,206.72 149.73,205.87 150.11,205.03 150.5,204.19 150.88,203.37 151.27,202.55 151.66,201.74 152.04,200.95 152.43,200.16 152.81,199.39 153.2,198.62 153.58,197.88 153.97,197.14 154.36,196.42 154.74,195.7 155.13,195 155.51,194.32 155.9,193.65 156.28,192.99 156.67,192.35 157.06,191.72 157.44,191.11 157.83,190.51 158.21,189.92 158.6,189.35 158.98,188.8 159.37,188.26 159.76,187.73 160.14,187.21 160.53,186.7 160.91,186.2 161.3,185.71 161.68,185.24 162.07,184.77 162.46,184.3 162.84,183.85 163.23,183.41 163.61,182.98 164,182.55 164.38,182.15 164.77,181.75 165.16,181.37 165.54,181 165.93,180.65 166.31,180.32 166.7,180.01 167.08,179.72 167.47,179.45 167.86,179.19 168.24,178.95 168.63,178.73 169.01,178.53 169.4,178.33 169.78,178.15 170.17,177.98 170.56,177.81 170.94,177.64 171.33,177.48 171.71,177.31 172.1,177.13 172.48,176.95 172.87,176.77 173.26,176.57 173.64,176.36 174.03,176.14 174.41,175.91 174.8,175.66 175.18,175.4 175.57,175.13 175.96,174.85 176.34,174.56 176.73,174.26 177.11,173.96 177.5,173.65 177.88,173.33 178.27,173.01 178.65,172.69 179.04,172.37 179.43,172.05 179.81,171.73 180.2,171.41 180.58,171.1 180.97,170.78 181.35,170.47 181.74,170.15 182.13,169.84 182.51,169.52 182.9,169.19 183.28,168.86 183.67,168.52 184.05,168.17 184.44,167.81 184.83,167.43 185.21,167.02 185.6,166.6 185.98,166.16 186.37,165.69 186.75,165.19 187.14,164.67 187.53,164.11 187.91,163.53 188.3,162.91 188.68,162.26 189.07,161.58 189.45,160.86 189.84,160.12 190.23,159.33 190.61,158.52 191,157.67 191.38,156.79 191.77,155.88 192.15,154.95 192.54,153.98 192.93,152.99 193.31,151.97 193.7,150.93 194.08,149.86 194.47,148.79 194.85,147.69 195.24,146.59 195.63,145.47 196.01,144.35 196.4,143.22 196.78,142.09 197.17,140.96 197.55,139.84 197.94,138.71 198.33,137.6 198.71,136.49 199.1,135.4 199.48,134.31 199.87,133.23 200.25,132.16 200.64,131.1 201.03,130.05 201.41,129.01 201.8,127.98 202.18,126.96 202.57,125.95 202.95,124.94 203.34,123.95 203.73,122.96 204.11,121.97 204.5,121 204.88,120.02 205.27,119.06 205.65,118.1 206.04,117.14 206.43,116.19 206.81,115.25 207.2,114.32 207.58,113.38 207.97,112.46 208.35,111.54 208.74,110.63 209.12,109.72 209.51,108.83 209.9,107.94 210.28,107.05 210.67,106.18 211.05,105.31 211.44,104.46 211.82,103.61 212.21,102.78 212.6,101.95 212.98,101.14 213.37,100.34 213.75,99.56 214.14,98.79 214.52,98.04 214.91,97.3 215.3,96.59 215.68,95.89 216.07,95.21 216.45,94.55 216.84,93.91 217.22,93.3 217.61,92.71 218,92.13 218.38,91.58 218.77,91.05 219.15,90.54 219.54,90.05 219.92,89.58 220.31,89.13 220.7,88.7 221.08,88.28 221.47,87.87 221.85,87.48 222.24,87.1 222.62,86.74 223.01,86.38 223.4,86.03 223.78,85.68 224.17,85.35 224.55,85.02 224.94,84.69 225.32,84.36 225.71,84.04 226.1,83.73 226.48,83.41 226.87,83.1 227.25,82.79 227.64,82.49 228.02,82.19 228.41,81.89 228.8,81.6 229.18,81.31 229.57,81.03 229.95,80.75 230.34,80.48 230.72,80.21 231.11,79.95 231.5,79.69 231.88,79.44 232.27,79.2 232.65,78.95 233.04,78.71 233.42,78.48 233.81,78.24 234.2,78.01 234.58,77.78 234.97,77.54 235.35,77.31 235.74,77.08 236.12,76.85 236.51,76.63 236.89,76.4 237.28,76.17 237.67,75.94 238.05,75.71 238.44,75.48 238.82,75.24 239.21,75.01 239.59,74.78 239.98,74.55 240.37,74.31 240.75,74.07 241.14,73.83 241.52,73.58 241.91,73.32 242.29,73.05 242.68,72.78 243.07,72.49 243.45,72.2 243.84,71.88 244.22,71.55 244.61,71.21 244.99,70.85 245.38,70.47 245.77,70.08 246.15,69.67 246.54,69.24 246.92,68.79 247.31,68.34 247.69,67.87 248.08,67.4 248.47,66.92 248.85,66.44 249.24,65.96 249.62,65.48 250.01,65.01 250.39,64.55 250.78,64.1 251.17,63.67 251.55,63.26 251.94,62.87 252.32,62.51 252.71,62.17 253.09,61.85 253.48,61.56 253.87,61.29 254.25,61.05 254.64,60.84 255.02,60.65 255.41,60.48 255.79,60.34 256.18,60.21 256.57,60.1 256.95,60.01 257.34,59.93 257.72,59.86 258.11,59.81 258.49,59.76 258.88,59.72 259.27,59.69 259.65,59.67 260.04,59.65 260.42,59.64 260.81,59.62 261.19,59.61 261.58,59.61 261.97,59.6" stroke-dasharray="none" stroke="rgb(31,120,180)" stroke-width="0.75" opacity="1" stroke-opacity="1" fill="none"/>
          </g>
        </g>
        <g id="Fig:densplot_01.panel.1.1.off.vp.2">
          <g id="Fig:densplot_01.border.panel.1.1.1">
            <rect id="Fig:densplot_01.border.panel.1.1.1.1" x="50.8" y="48.19" width="225.2" height="185.81" transform="" stroke="rgb(0,0,0)" stroke-dasharray="none" stroke-width="0.75" opacity="1" fill="none" stroke-opacity="1" fill-opacity="0"/>
          </g>
        </g>
        <g id="Fig:densplot_01..1"/>
      </g>
    </g>
  </g>
</svg>